/* XPM */
static char * out_wmBunsenRodNode_xpm[] = {
"20 20 164 2",
"  	c None",
". 	s bg c #BFBFBF",
"+ 	c #C9C5C5",
"@ 	c #C1C1C1",
"# 	c #C3C0BF",
"$ 	c #DEB7AD",
"% 	c #D4B9AF",
"& 	c #C4C1C0",
"* 	c #C0C0C0",
"= 	c #D7A99F",
"- 	c #E0CBBE",
"; 	c #DDCBC1",
"> 	c #CBC3C0",
", 	c #C9C2BF",
"' 	c #DD826D",
") 	c #D45C4A",
"! 	c #DCA99D",
"~ 	c #D1A7A0",
"{ 	c #D56C55",
"] 	c #E28D79",
"^ 	c #DD896E",
"/ 	c #D8BCAD",
"( 	c #C7C3C2",
"_ 	c #D6BBB4",
": 	c #DC6551",
"< 	c #CB3126",
"[ 	c #C6372E",
"} 	c #D94A37",
"| 	c #D33C2E",
"1 	c #D14131",
"2 	c #D75B41",
"3 	c #C6AEA6",
"4 	c #D2BFB9",
"5 	c #E29380",
"6 	c #D85641",
"7 	c #C52922",
"8 	c #B4191C",
"9 	c #D03026",
"0 	c #C92921",
"a 	c #CB2D23",
"b 	c #D24F3A",
"c 	c #CFB8B3",
"d 	c #C5BEBC",
"e 	c #D65F4D",
"f 	c #D03B2D",
"g 	c #C62A26",
"h 	c #B11522",
"i 	c #C62626",
"j 	c #BC2025",
"k 	c #B6171B",
"l 	c #D44531",
"m 	c #C3AAA5",
"n 	c #C5C2C0",
"o 	c #DA7665",
"p 	c #C32925",
"q 	c #B81B25",
"r 	c #AD1722",
"s 	c #B11C20",
"t 	c #A3131F",
"u 	c #9F161E",
"v 	c #BC2C26",
"w 	c #C2A9A6",
"x 	c #C5938F",
"y 	c #B9362F",
"z 	c #CA8F9B",
"A 	c #C79597",
"B 	c #97404B",
"C 	c #A4616B",
"D 	c #DDBDC3",
"E 	c #D3B7B8",
"F 	c #C2C1C1",
"G 	c #C0BEBE",
"H 	c #DFC8C3",
"I 	c #DDD8D7",
"J 	c #D3CED0",
"K 	c #C0B1B4",
"L 	c #B8A9AF",
"M 	c #B9B6B6",
"N 	c #DAD3D0",
"O 	c #CCCBCC",
"P 	c #CFCCCC",
"Q 	c #D5CACE",
"R 	c #5C5253",
"S 	c #B38C81",
"T 	c #B3796A",
"U 	c #785952",
"V 	c #C9BABB",
"W 	c #C6C4C5",
"X 	c #CBC0C1",
"Y 	c #D5A3A5",
"Z 	c #BB7769",
"` 	c #E06F4F",
" .	c #DD6542",
"..	c #D9765A",
"+.	c #D79F98",
"@.	c #CDBFBF",
"#.	c #EC9A9A",
"$.	c #EC8472",
"%.	c #E56E4B",
"&.	c #DA5A3C",
"*.	c #E06747",
"=.	c #E89887",
"-.	c #C4C0C0",
";.	c #CBC1C0",
">.	c #E89F9D",
",.	c #EC8C7D",
"'.	c #DF674B",
").	c #D65236",
"!.	c #DC694B",
"~.	c #EA9489",
"{.	c #C6BEBE",
"].	c #C8C2C1",
"^.	c #EBA4A8",
"/.	c #AF585B",
"(.	c #C35B4E",
"_.	c #D0634B",
":.	c #CF6C5F",
"<.	c #B26067",
"[.	c #CABDBD",
"}.	c #C3C1C1",
"|.	c #E4A3A5",
"1.	c #BC6B72",
"2.	c #DC7F81",
"3.	c #D0746C",
"4.	c #D87B77",
"5.	c #DC8B8F",
"6.	c #CDB9BA",
"7.	c #C3C2C1",
"8.	c #E7AAAA",
"9.	c #DE8788",
"0.	c #D27676",
"a.	c #CB726E",
"b.	c #D57873",
"c.	c #E68D91",
"d.	c #D2B9BB",
"e.	c #C1C0C0",
"f.	c #E6AFAF",
"g.	c #DB8484",
"h.	c #CF7371",
"i.	c #CD706F",
"j.	c #CE736D",
"k.	c #E28989",
"l.	c #D3B7B7",
"m.	c #E8B1B1",
"n.	c #DC8683",
"o.	c #CC716F",
"p.	c #C46A69",
"q.	c #C76E67",
"r.	c #D98281",
"s.	c #D8ACAB",
"t.	c #D6B3B2",
"u.	c #CF807D",
"v.	c #C26A68",
"w.	c #BB6361",
"x.	c #BE6863",
"y.	c #BB7270",
"z.	c #C9ACAB",
"A.	c #C1BFBF",
"B.	c #C0B9B7",
"C.	c #BDB7B6",
"D.	c #BAADAD",
"E.	c #BEB6B6",
"F.	c #C0BBBB",
"G.	c #C0BFBF",
". . . . . . . . . . . + @ . . . . . . . ",
". . . . . . # $ % & * = - ; > . . . . . ",
". . . . . . , ' ) ! ~ { ] ^ / . . . . . ",
". . . . . ( _ : < [ } | 1 2 3 . . . . . ",
". . . . . 4 5 6 7 8 9 0 a b c . . . . . ",
". . . . . d e f g h i j k l m . . . . . ",
". . . . . n o p q r s t u v w . . . . . ",
". . . . . . x y z A B C D E F . . . . . ",
". . . . . . G H I J K L M N O . . . . . ",
". . . . . . . P Q R S T U V W . . . . . ",
". . . . . . . X Y Z `  ...+.F . . . . . ",
". . . . . . . @.#.$.%.&.*.=.-.. . . . . ",
". . . . . . . ;.>.,.'.).!.~.{.. . . . . ",
". . . . . . . ].^./.(._.:.<.[.. . . . . ",
". . . . . . . }.|.1.2.3.4.5.6.. . . . . ",
". . . . . . . 7.8.9.0.a.b.c.d.. . . . . ",
". . . . . . . e.f.g.h.i.j.k.l.. . . . . ",
". . . . . . . * m.n.o.p.q.r.s.. . . . . ",
". . . . . . . . t.u.v.w.x.y.z.. . . . . ",
". . . . . . . . A.B.C.D.E.F.G.. . . . . "};
