/* XPM */
static char * out_wmFizCollisionNode_xpm[] = {
"20 20 240 2",
"  	s bg c #BFBFBF",
". 	c #BEBFBF",
"+ 	c #BFBEB8",
"@ 	c #D6C91D",
"# 	c #C2C0AC",
"$ 	c #BEBFC0",
"% 	c #C7B963",
"& 	c #DCCA09",
"* 	c #C6C18C",
"= 	c #BFBFBE",
"- 	c #BFBFBB",
"; 	c #D3B808",
"> 	c #E3D110",
", 	c #CEC779",
"' 	c #BEBEBF",
") 	c #BFBFC0",
"! 	c #BEB98E",
"~ 	c #D4BC09",
"{ 	c #F0E031",
"] 	c #E9DE59",
"^ 	c #E3DD6A",
"/ 	c #CCC774",
"( 	c #BEBFC2",
"_ 	c #BFBEBE",
": 	c #BEBFC6",
"< 	c #D1BC22",
"[ 	c #EBDD3D",
"} 	c #E3D530",
"| 	c #F5EA50",
"1 	c #F1E743",
"2 	c #EEE222",
"3 	c #E1DA55",
"4 	c #C0BFB8",
"5 	c #C3C1B9",
"6 	c #E0CF1D",
"7 	c #ECDF40",
"8 	c #EADC38",
"9 	c #EEE342",
"0 	c #F0E742",
"a 	c #ECE128",
"b 	c #F2EB41",
"c 	c #C1C0AB",
"d 	c #C6C4BE",
"e 	c #F9EE6F",
"f 	c #D0BB0A",
"g 	c #EBDE3A",
"h 	c #EDE23D",
"i 	c #E9DB34",
"j 	c #EFE33E",
"k 	c #EBDF24",
"l 	c #F1E737",
"m 	c #DEDCB3",
"n 	c #BDBDBE",
"o 	c #BEBEBE",
"p 	c #BCBDC0",
"q 	c #F5EC9E",
"r 	c #E7D725",
"s 	c #E0CF05",
"t 	c #D3BF05",
"u 	c #EEE239",
"v 	c #EDE133",
"w 	c #F6EC48",
"x 	c #F0E629",
"y 	c #F1E630",
"z 	c #F5EB48",
"A 	c #CCCAB3",
"B 	c #D3CDA8",
"C 	c #EFDE59",
"D 	c #E3D215",
"E 	c #E8D70A",
"F 	c #EBDA0D",
"G 	c #F2E63D",
"H 	c #F3E83F",
"I 	c #F2E638",
"J 	c #F4E830",
"K 	c #F3EA30",
"L 	c #F2E82B",
"M 	c #EBE26B",
"N 	c #BCBCC3",
"O 	c #E3D563",
"P 	c #E5D437",
"Q 	c #E1D213",
"R 	c #E5D509",
"S 	c #EADB0F",
"T 	c #E7DA17",
"U 	c #F8EC45",
"V 	c #F3E830",
"W 	c #F6EB35",
"X 	c #F4EA29",
"Y 	c #F4E91E",
"Z 	c #FDF244",
"` 	c #C1BF9F",
" .	c #E2D04D",
"..	c #E3D12F",
"+.	c #E1CF0F",
"@.	c #E7D712",
"#.	c #EFE119",
"$.	c #F6E924",
"%.	c #FDF449",
"&.	c #FFFB5A",
"*.	c #FFFB5F",
"=.	c #FFF95A",
"-.	c #FFFD88",
";.	c #FCFBAB",
">.	c #E6E2AF",
",.	c #C7C7C1",
"'.	c #BFBFC1",
").	c #DECB45",
"!.	c #EAD53A",
"~.	c #F3E647",
"{.	c #FDF046",
"].	c #F9EE40",
"^.	c #E7D923",
"/.	c #C1B018",
"(.	c #A8930B",
"_.	c #847203",
":.	c #6C5B02",
"<.	c #4A3D02",
"[.	c #745F00",
"}.	c #8B7701",
"|.	c #A59100",
"1.	c #BAB57E",
"2.	c #D7C341",
"3.	c #FCF184",
"4.	c #F2E551",
"5.	c #C1AB09",
"6.	c #726B0C",
"7.	c #526218",
"8.	c #404D21",
"9.	c #6C7A37",
"0.	c #90774B",
"a.	c #A28A63",
"b.	c #6B8242",
"c.	c #637738",
"d.	c #54661E",
"e.	c #8F7802",
"f.	c #998603",
"g.	c #BDBCB9",
"h.	c #E7D980",
"i.	c #CAB518",
"j.	c #92841A",
"k.	c #8A914A",
"l.	c #8E9B54",
"m.	c #859C54",
"n.	c #7F9951",
"o.	c #BA8F6E",
"p.	c #EDB7AE",
"q.	c #F1BFB9",
"r.	c #DAAB9E",
"s.	c #6D8C49",
"t.	c #688948",
"u.	c #746917",
"v.	c #928616",
"w.	c #C0B77F",
"x.	c #BEA403",
"y.	c #877B19",
"z.	c #8B954B",
"A.	c #94A15A",
"B.	c #96A560",
"C.	c #97A667",
"D.	c #92A061",
"E.	c #D19381",
"F.	c #D79D91",
"G.	c #D3978E",
"H.	c #C88781",
"I.	c #758F53",
"J.	c #688D4A",
"K.	c #66705A",
"L.	c #BBB9B5",
"M.	c #C0A908",
"N.	c #92895C",
"O.	c #676F3C",
"P.	c #8E9954",
"Q.	c #949F5C",
"R.	c #98A763",
"S.	c #9CAC6E",
"T.	c #9DAB6A",
"U.	c #B18A62",
"V.	c #C7856F",
"W.	c #BB7C65",
"X.	c #99825A",
"Y.	c #819F5C",
"Z.	c #6C8D4A",
"`.	c #616E5F",
" +	c #B7A82B",
".+	c #A2944E",
"++	c #797D48",
"@+	c #818C4C",
"#+	c #909C5A",
"$+	c #93A260",
"%+	c #97A764",
"&+	c #99A767",
"*+	c #879656",
"=+	c #878B4E",
"-+	c #7E8B4E",
";+	c #8E9F5F",
">+	c #92A462",
",+	c #849062",
"'+	c #889285",
")+	c #B5B5B5",
"!+	c #B7A751",
"~+	c #A5963A",
"{+	c #80853B",
"]+	c #84924F",
"^+	c #899852",
"/+	c #8B9956",
"(+	c #8B9B59",
"_+	c #899854",
":+	c #748244",
"<+	c #798A49",
"[+	c #8A9C59",
"}+	c #858F50",
"|+	c #9E9F98",
"1+	c #999B96",
"2+	c #A4A5A4",
"3+	c #C3C3C4",
"4+	c #95957F",
"5+	c #B6B5A4",
"6+	c #84883F",
"7+	c #7C8A40",
"8+	c #839047",
"9+	c #85914F",
"0+	c #8B9553",
"a+	c #85934F",
"b+	c #7F8B49",
"c+	c #7F8C49",
"d+	c #9FA092",
"e+	c #C1C1C1",
"f+	c #BDBDBD",
"g+	c #BCBCBC",
"h+	c #C0C0C0",
"i+	c #A8A797",
"j+	c #BEBDBA",
"k+	c #A8A98E",
"l+	c #95996B",
"m+	c #7C844B",
"n+	c #757E44",
"o+	c #788045",
"p+	c #91956C",
"q+	c #BEBEBB",
"            . + @ #                     ",
"            $ % & * =                   ",
"            - ; > , '                   ",
"          ) ! ~ { ] ^ / ( _             ",
"          : < [ } | 1 2 3 4             ",
"        ' 5 6 7 8 9 0 a b c             ",
"        d e f g h i j k l m n o         ",
"      p q r s t u v w x y z A           ",
"      B C D E F G H I J K L M N         ",
"      O P Q R S T U V W X Y Z ` _       ",
"       ...+.@.#.$.%.&.*.=.-.;.>.,.'._   ",
"      ).!.~.{.].^./.(._.:.<.[.}.|.1.)   ",
"      2.3.4.5.6.7.8.9.0.a.b.c.d.e.f.g.  ",
"  o ) h.i.j.k.l.m.n.o.p.q.r.s.t.u.v.)   ",
"  ) w.x.y.z.A.B.C.D.E.F.G.H.I.J.K.L.    ",
"  ' M.N.O.P.Q.R.S.T.U.V.W.X.Y.Z.`.  o   ",
"  '. +.+++@+#+$+%+&+*+=+-+;+>+,+'+)+    ",
"      !+~+{+]+^+/+(+_+:+<+[+}+|+1+2+    ",
"      3+4+5+6+7+8+9+0+a+b+c+d+e+f+g+    ",
"      h+i+e+j+k+l+m+n+o+p+q+h+o         "};
