/* XPM */
static char * out_wmBunsenNode_xpm[] = {
"20 20 239 2",
"  	c None",
". 	s bg c #C0C0C0",
"+ 	c #C1C0BF",
"@ 	c #C2C1BE",
"# 	c #C1C0BE",
"$ 	c #C0C0BF",
"% 	c #CCB991",
"& 	c #C9B383",
"* 	c #CAB488",
"= 	c #CCBD9E",
"- 	c #D0B884",
"; 	c #D1A94B",
"> 	c #D1A336",
", 	c #D19F2B",
"' 	c #C99626",
") 	c #CB9C3B",
"! 	c #CEAB62",
"~ 	c #C5C2BB",
"{ 	c #D0BA93",
"] 	c #D1AC60",
"^ 	c #CCA144",
"/ 	c #CD9C35",
"( 	c #CC9327",
"_ 	c #C98D25",
": 	c #C18B32",
"< 	c #B98C45",
"[ 	c #B69B63",
"} 	c #D2C2A6",
"| 	c #977542",
"1 	c #936B39",
"2 	c #96672E",
"3 	c #8F6031",
"4 	c #B58945",
"5 	c #A4793A",
"6 	c #80501D",
"7 	c #905C32",
"8 	c #96672D",
"9 	c #93764D",
"0 	c #C4BEB5",
"a 	c #7C6444",
"b 	c #B78D46",
"c 	c #C69021",
"d 	c #BD8719",
"e 	c #AC8037",
"f 	c #3B1F09",
"g 	c #331A08",
"h 	c #A37A35",
"i 	c #B2770D",
"j 	c #B2780F",
"k 	c #916822",
"l 	c #765F48",
"m 	c #B5AA99",
"n 	c #C2C0BD",
"o 	c #B8AD98",
"p 	c #C9B387",
"q 	c #765224",
"r 	c #B58739",
"s 	c #BB8A24",
"t 	c #BA8B1A",
"u 	c #A0721C",
"v 	c #794A29",
"w 	c #663724",
"x 	c #926527",
"y 	c #AA7F12",
"z 	c #A77217",
"A 	c #A67830",
"B 	c #89612F",
"C 	c #C39A5F",
"D 	c #987B56",
"E 	c #BEB6A7",
"F 	c #9B773F",
"G 	c #ECC063",
"H 	c #CF9C4B",
"I 	c #98622B",
"J 	c #A67335",
"K 	c #9C6733",
"L 	c #824820",
"M 	c #C38545",
"N 	c #B97C38",
"O 	c #7B4716",
"P 	c #784C25",
"Q 	c #875122",
"R 	c #956320",
"S 	c #CF9B3C",
"T 	c #E2A642",
"U 	c #935E1E",
"V 	c #B3A38E",
"W 	c #C0BFBF",
"X 	c #A19181",
"Y 	c #C08D5C",
"Z 	c #F4BC63",
"` 	c #ECB049",
" .	c #DBA03F",
"..	c #AE7927",
"+.	c #A87324",
"@.	c #C98F35",
"#.	c #CA8B22",
"$.	c #C88A1E",
"%.	c #BF892A",
"&.	c #AF7F31",
"*.	c #C38C37",
"=.	c #CA922D",
"-.	c #DA9D26",
";.	c #E6A22C",
">.	c #B47D32",
",.	c #A1907B",
"'.	c #B2A48F",
").	c #E1B66D",
"!.	c #F2BE4A",
"~.	c #F0B22F",
"{.	c #E6A62F",
"].	c #D4992F",
"^.	c #C98F21",
"/.	c #DB9F2F",
"(.	c #BF8318",
"_.	c #B97C15",
":.	c #D0952C",
"<.	c #C0871A",
"[.	c #CB901E",
"}.	c #D1961F",
"|.	c #DC991C",
"1.	c #E7A12F",
"2.	c #D9AC63",
"3.	c #C8C4BA",
"4.	c #E6CB85",
"5.	c #F2BE46",
"6.	c #EFAF2B",
"7.	c #E2A22C",
"8.	c #D69827",
"9.	c #C68C20",
"0.	c #D39736",
"a.	c #BC7B1D",
"b.	c #B97318",
"c.	c #C48124",
"d.	c #C68524",
"e.	c #CE8F12",
"f.	c #CC9419",
"g.	c #DA9A24",
"h.	c #EA9E2F",
"i.	c #E0B87C",
"j.	c #C3C2BD",
"k.	c #DFCA94",
"l.	c #EEB94A",
"m.	c #ECA72D",
"n.	c #E19F2F",
"o.	c #D49421",
"p.	c #C78D18",
"q.	c #C28C20",
"r.	c #B97F1B",
"s.	c #B47917",
"t.	c #BD8018",
"u.	c #BF8110",
"v.	c #D39015",
"w.	c #CE9620",
"x.	c #D69821",
"y.	c #EB9E2B",
"z.	c #DEB883",
"A.	c #C1C1BE",
"B.	c #D7C79F",
"C.	c #E6B449",
"D.	c #E8A42B",
"E.	c #DD992B",
"F.	c #D69222",
"G.	c #C8861F",
"H.	c #C18839",
"I.	c #AF8040",
"J.	c #A5793C",
"K.	c #B27F33",
"L.	c #B77917",
"M.	c #CF881F",
"N.	c #CF9020",
"O.	c #D69719",
"P.	c #E4A22C",
"Q.	c #DABE90",
"R.	c #C2C1BF",
"S.	c #E3BA5E",
"T.	c #E5A52F",
"U.	c #D79426",
"V.	c #CF8A1B",
"W.	c #C07A1F",
"X.	c #8D4F1B",
"Y.	c #64351B",
"Z.	c #61381C",
"`.	c #855423",
" +	c #B57726",
".+	c #CF882B",
"++	c #D18F22",
"@+	c #D79A1E",
"#+	c #DCAA43",
"$+	c #DDC083",
"%+	c #E0A83A",
"&+	c #D39629",
"*+	c #CB8919",
"=+	c #C88615",
"-+	c #B67A15",
";+	c #AC7620",
">+	c #A97725",
",+	c #AC771D",
"'+	c #BA821B",
")+	c #CA8B26",
"!+	c #D19023",
"~+	c #D9A032",
"{+	c #D6B774",
"]+	c #E0B358",
"^+	c #D49D31",
"/+	c #CC8E1C",
"(+	c #D59523",
"_+	c #C6851F",
":+	c #BF7A1C",
"<+	c #BA761E",
"[+	c #B57720",
"}+	c #BA8329",
"|+	c #C18A1F",
"1+	c #D29528",
"2+	c #D7A855",
"3+	c #D4AA5E",
"4+	c #CE9229",
"5+	c #D88E22",
"6+	c #D08926",
"7+	c #B27A19",
"8+	c #B57D22",
"9+	c #B77D24",
"0+	c #BC8C2A",
"a+	c #C78E26",
"b+	c #CC9F52",
"c+	c #D4AE73",
"d+	c #CE994A",
"e+	c #C38E3D",
"f+	c #BD8539",
"g+	c #C87B3A",
"h+	c #C47635",
"i+	c #C09049",
"j+	c #C8AC79",
"k+	c #CEBA97",
"l+	c #AE754D",
"m+	c #942610",
"n+	c #9C3E2B",
"o+	c #C0AC9B",
"p+	c #C3C1BD",
". . . . . . . . + @ # $ . . . . . . . . ",
". . . . . . . . % & * = . . . . . . . . ",
". . . . . . - ; > , ' ) ! . . . . . . . ",
". . . . ~ { ] ^ / ( _ : < [ . . . . . . ",
". . . @ } | 1 2 3 4 5 6 7 8 9 . . . . . ",
". . $ 0 a b c d e f g h i j k l m . . . ",
". n o p q r s t u v w x y z A B C D . . ",
". E F G H I J K L M N O P Q R S T U V $ ",
"W X Y Z `  ...+.@.#.$.%.&.*.=.-.;.>.,.$ ",
"$ '.).!.~.{.].^./.(._.:.<.[.}.|.1.2.. . ",
". 3.4.5.6.7.8.9.0.a.b.c.d.e.f.g.h.i.. . ",
". j.k.l.m.n.o.p.q.r.s.t.u.v.w.x.y.z.. . ",
". A.B.C.D.E.F.G.H.I.J.K.L.M.N.O.P.Q.R.. ",
". . . S.T.U.V.W.X.Y.Z.`. +.+++@+#+. . . ",
". . . $+%+&+*+=+-+;+>+,+'+)+!+~+{+. . . ",
". . . . ]+^+/+(+_+:+<+[+}+|+1+2+. . . . ",
". . . . . 3+4+5+6+7+8+9+0+a+b+. . . . . ",
". . . . . . c+d+e+f+g+h+i+j+. . . . . . ",
". . . . . . . . k+l+m+n+o+p+. . . . . . ",
". . . . . . . . . . . . . . . . . . . . "};
