# Wavefront OBJ (1.0) exported by lynx's OBJ import/export script

# Meshname:	Cone
# Total number of Faces:	64
# Total number of Vertices:	34

o Cone

g Cone

v 0.707106769085 0.707106769085 -1.0
v 0.831469655037 0.555570185184 -1.0
v 0.923879504204 0.382683426142 -1.0
v 0.980785250664 0.195090353489 -1.0
v 1.0 7.5497901264e-08 -1.0
v 0.980785310268 -0.195090204477 -1.0
v 0.923879563808 -0.38268327713 -1.0
v 0.831469655037 -0.555570185184 -1.0
v 0.707106769085 -0.707106769085 -1.0
v 0.555570185184 -0.831469655037 -1.0
v 0.38268327713 -0.923879623413 -1.0
v 0.195090085268 -0.980785310268 -1.0
v -3.25841369886e-07 -1.0 -1.0
v -0.195090726018 -0.980785191059 -1.0
v -0.382683873177 -0.92387932539 -1.0
v -0.555570721626 -0.831469297409 -1.0
v -0.707107245922 -0.707106351852 -1.0
v -0.831470012665 -0.555569648743 -1.0
v -0.923879861832 -0.382682681084 -1.0
v -0.980785429478 -0.195089459419 -1.0
v -1.0 9.65599156189e-07 -1.0
v -0.98078507185 0.195091351867 -1.0
v -0.923879086971 0.382684469223 -1.0
v -0.831468939781 0.555571258068 -1.0
v -0.707105875015 0.707107663155 -1.0
v -0.555569112301 0.831470370293 -1.0
v -0.382682085037 0.92388010025 -1.0
v -0.195088818669 0.980785548687 -1.0
v 1.60535705618e-06 1.0 -1.0
v 0.195091977715 0.980784952641 -1.0
v 0.382685065269 0.923878848553 -1.0
v 0.55557179451 0.831468582153 -1.0
v 0.0 0.0 1.0
v 0.0 0.0 -1.0
vn 0.600329577923 0.600329577923 -0.528366982937
vn 0.705893099308 0.471663564444 -0.528366982937
vn 0.784356236458 0.324869543314 -0.528366982937
vn 0.832666993141 0.165623947978 -0.528366982937
vn 0.84899443388 0.0 -0.528366982937
vn 0.832666993141 -0.165623947978 -0.528366982937
vn 0.784356236458 -0.324869543314 -0.528366982937
vn 0.705893099308 -0.471663564444 -0.528366982937
vn 0.600329577923 -0.600329577923 -0.528366982937
vn 0.471663564444 -0.705893099308 -0.528366982937
vn 0.324869543314 -0.784356236458 -0.528366982937
vn 0.165623947978 -0.832666993141 -0.528366982937
vn 0.0 -0.84899443388 -0.528366982937
vn -0.165623947978 -0.832666993141 -0.528366982937
vn -0.324869543314 -0.784356236458 -0.528366982937
vn -0.471663564444 -0.705893099308 -0.528366982937
vn -0.600329577923 -0.600329577923 -0.528366982937
vn -0.705893099308 -0.471663564444 -0.528366982937
vn -0.784356236458 -0.324869543314 -0.528366982937
vn -0.832666993141 -0.165623947978 -0.528366982937
vn -0.84899443388 0.0 -0.528366982937
vn -0.832666993141 0.165623947978 -0.528366982937
vn -0.784356236458 0.324900060892 -0.528366982937
vn -0.705893099308 0.471663564444 -0.528366982937
vn -0.600329577923 0.600329577923 -0.528366982937
vn -0.471663564444 0.705893099308 -0.528366982937
vn -0.324869543314 0.784356236458 -0.528366982937
vn -0.165623947978 0.832666993141 -0.528366982937
vn 0.0 0.84899443388 -0.528366982937
vn 0.165623947978 0.832666993141 -0.528366982937
vn 0.324900060892 0.784356236458 -0.528366982937
vn 0.471663564444 0.705893099308 -0.528366982937
vn 0.0 0.0 1.0
vn 0.0 0.0 -1.0
f 2//2 1//1 33//33 
f 33//33 3//3 2//2 
f 33//33 4//4 3//3 
f 33//33 5//5 4//4 
f 33//33 6//6 5//5 
f 33//33 7//7 6//6 
f 33//33 8//8 7//7 
f 33//33 9//9 8//8 
f 33//33 10//10 9//9 
f 33//33 11//11 10//10 
f 33//33 12//12 11//11 
f 33//33 13//13 12//12 
f 33//33 14//14 13//13 
f 33//33 15//15 14//14 
f 33//33 16//16 15//15 
f 33//33 17//17 16//16 
f 33//33 18//18 17//17 
f 33//33 19//19 18//18 
f 33//33 20//20 19//19 
f 33//33 21//21 20//20 
f 33//33 22//22 21//21 
f 33//33 23//23 22//22 
f 33//33 24//24 23//23 
f 33//33 25//25 24//24 
f 33//33 26//26 25//25 
f 33//33 27//27 26//26 
f 33//33 28//28 27//27 
f 33//33 29//29 28//28 
f 33//33 30//30 29//29 
f 33//33 31//31 30//30 
f 33//33 32//32 31//31 
f 33//33 1//1 32//32 
f 34//34 1//1 2//2 
f 34//34 2//2 3//3 
f 34//34 3//3 4//4 
f 34//34 4//4 5//5 
f 34//34 5//5 6//6 
f 34//34 6//6 7//7 
f 34//34 7//7 8//8 
f 34//34 8//8 9//9 
f 34//34 9//9 10//10 
f 34//34 10//10 11//11 
f 34//34 11//11 12//12 
f 34//34 12//12 13//13 
f 34//34 13//13 14//14 
f 34//34 14//14 15//15 
f 34//34 15//15 16//16 
f 34//34 16//16 17//17 
f 34//34 17//17 18//18 
f 34//34 18//18 19//19 
f 34//34 19//19 20//20 
f 34//34 20//20 21//21 
f 34//34 21//21 22//22 
f 34//34 22//22 23//23 
f 34//34 23//23 24//24 
f 34//34 24//24 25//25 
f 34//34 25//25 26//26 
f 34//34 26//26 27//27 
f 34//34 27//27 28//28 
f 34//34 28//28 29//29 
f 34//34 29//29 30//30 
f 34//34 30//30 31//31 
f 34//34 31//31 32//32 
f 32//32 1//1 34//34 
