#Exported from google sketchup
mtllib /Users/fangda/Studio/Researches/BASim/RodShellDev/assets/rodshelltest/bag.mtl
  v -41.09655204 139.51993160 40.33600000
  v -44.93934703 128.30770880 0.00000000
  v -44.93934703 128.30770880 40.33600000
  v -41.09655204 139.51993160 0.00000000
  v 63.67883271 47.44886607 0.00000000
  v 63.96089309 41.81236391 40.33600000
  v 63.96089309 41.81236391 -0.00000000
  v 63.67883271 47.44886607 40.33600000
  v -61.36987543 30.70870017 40.33600000
  v -59.26880767 25.47083524 0.00000000
  v -59.26880767 25.47083524 40.33600000
  v -61.36987543 30.70870017 0.00000000
  v -57.15651291 82.52265413 40.33600000
  v -59.41052406 70.88648435 0.00000000
  v -59.41052406 70.88648435 40.33600000
  v -57.15651291 82.52265413 0.00000000
  v 57.89016766 82.52265413 0.00000000
  v 60.14417881 70.88648435 40.33600000
  v 60.14417881 70.88648435 -0.00000000
  v 57.89016766 82.52265413 40.33600000
  v 21.11050524 186.91345098 -0.00000000
  v 23.39384701 183.17346538 40.33600000
  v 23.39384701 183.17346538 0.00000000
  v 21.11050524 186.91345098 40.33600000
  v -56.43868281 20.58820193 0.00000000
  v -56.43868281 20.58820193 40.33600000
  v -62.69849791 36.19363199 40.33600000
  v -62.69849791 36.19363199 0.00000000
  v -63.22723835 41.81236391 40.33600000
  v -63.22723835 41.81236391 0.00000000
  v -28.29952167 3.64053186 40.33600000
  v -33.84932640 4.66492544 0.00000000
  v -28.29952167 3.64053186 0.00000000
  v -33.84932640 4.66492544 40.33600000
  v -62.94517796 47.44886607 0.00000000
  v -61.34057517 59.19221583 0.00000000
  v -54.58027979 94.09175247 0.00000000
  v -52.93794446 16.16162924 0.00000000
  v -51.68381125 105.58485838 0.00000000
  v -48.83888474 12.28252829 0.00000000
  v -48.46934076 116.99310948 0.00000000
  v -44.22615145 9.03100460 0.00000000
  v -43.77133462 107.60720194 0.00000000
  v -39.19500001 6.47420388 0.00000000
  v -37.29219253 99.34964541 0.00000000
  v -29.29337152 92.55366245 0.00000000
  v -20.09765321 87.49349578 0.00000000
  v -22.66019227 3.42217742 0.00000000
  v 23.39384701 3.42217742 0.00000000
  v -10.07611841 84.37334158 0.00000000
  v 0.36682737 83.31910948 0.00000000
  v 10.80977316 84.37334158 0.00000000
  v 20.83130796 87.49349578 0.00000000
  v 30.02702627 92.55366245 0.00000000
  v 29.03317641 3.64053186 0.00000000
  v 34.58298115 4.66492544 0.00000000
  v 38.02584728 99.34964541 0.00000000
  v 39.92865475 6.47420388 0.00000000
  v 44.50498937 107.60720194 0.00000000
  v 44.95980619 9.03100460 0.00000000
  v 49.20299551 116.99310948 0.00000000
  v 49.57253949 12.28252829 -0.00000000
  v 52.41746599 105.58485838 -0.00000000
  v 53.67159921 16.16162924 0.00000000
  v 55.31393454 94.09175247 -0.00000000
  v 57.17233756 20.58820193 0.00000000
  v 60.00246242 25.47083524 0.00000000
  v 62.10353018 30.70870017 0.00000000
  v 62.07422992 59.19221583 0.00000000
  v 63.43215266 36.19363199 -0.00000000
  v -44.22615145 9.03100460 40.33600000
  v -48.83888474 12.28252829 40.33600000
  v -10.07611841 84.37334158 40.33600000
  v 0.36682737 83.31910948 40.33600000
  v -39.19500001 6.47420388 40.33600000
  v -20.37685050 186.91345098 40.33600000
  v -22.66019227 183.17346538 0.00000000
  v -22.66019227 183.17346538 40.33600000
  v -20.37685050 186.91345098 0.00000000
  v 10.80977316 84.37334158 40.33600000
  v 20.83130796 87.49349578 40.33600000
  v 6.55933383 195.99224060 40.33600000
  v 10.77190837 194.78585857 0.00000000
  v 6.55933383 195.99224060 -0.00000000
  v 10.77190837 194.78585857 40.33600000
  v 52.41746599 105.58485838 40.33600000
  v 49.20299551 116.99310948 40.33600000
  v 60.00246242 25.47083524 40.33600000
  v 62.10353018 30.70870017 40.33600000
  v -10.03825363 194.78585857 40.33600000
  v -5.82567908 195.99224060 0.00000000
  v -10.03825363 194.78585857 0.00000000
  v -5.82567908 195.99224060 40.33600000
  v 49.57253949 12.28252829 40.33600000
  v 44.95980619 9.03100460 40.33600000
  v -62.94517796 47.44886607 40.33600000
  v -32.48465001 161.60275008 40.33600000
  v -36.94391899 150.62113209 0.00000000
  v -36.94391899 150.62113209 40.33600000
  v -32.48465001 161.60275008 0.00000000
  v 34.58298115 4.66492544 40.33600000
  v 29.03317641 3.64053186 40.33600000
  v 55.31393454 94.09175247 40.33600000
  v 63.43215266 36.19363199 40.33600000
  v -1.46269227 196.39904273 40.33600000
  v 2.19634701 196.39904273 0.00000000
  v -1.46269227 196.39904273 0.00000000
  v 2.19634701 196.39904273 40.33600000
  v 14.68884378 192.82148618 40.33600000
  v 14.68884378 192.82148618 0.00000000
  v 28.45583839 172.45631759 40.33600000
  v 28.45583839 172.45631759 -0.00000000
  v 23.39384701 3.42217742 40.33600000
  v -52.93794446 16.16162924 40.33600000
  v 44.50498937 107.60720194 40.33600000
  v 38.02584728 99.34964541 40.33600000
  v 62.07422992 59.19221583 40.33600000
  v -61.34057517 59.19221583 40.33600000
  v -27.72218365 172.45631759 40.33600000
  v -27.72218365 172.45631759 0.00000000
  v 18.17510524 190.16684440 40.33600000
  v 18.17510524 190.16684440 -0.00000000
  v -17.44145050 190.16684440 40.33600000
  v -13.95518904 192.82148618 0.00000000
  v -17.44145050 190.16684440 0.00000000
  v -13.95518904 192.82148618 40.33600000
  v -22.66019227 3.42217742 40.33600000
  v 33.21830475 161.60275008 40.33600000
  v 33.21830475 161.60275008 -0.00000000
  v 39.92865475 6.47420388 40.33600000
  v -51.68381125 105.58485838 40.33600000
  v -54.58027979 94.09175247 40.33600000
  v 37.67757374 150.62113209 40.33600000
  v 37.67757374 150.62113209 -0.00000000
  v -43.77133462 107.60720194 40.33600000
  v -48.46934076 116.99310948 40.33600000
  v -37.29219253 99.34964541 40.33600000
  v 41.83020678 139.51993160 40.33600000
  v 41.83020678 139.51993160 0.00000000
  v -29.29337152 92.55366245 40.33600000
  v 45.67300177 128.30770880 -0.00000000
  v 45.67300177 128.30770880 40.33600000
  v -20.09765321 87.49349578 40.33600000
  v 30.02702627 92.55366245 40.33600000
  v 53.67159921 16.16162924 40.33600000
  v 57.17233756 20.58820193 40.33600000
#  146 elements
  vt 0.00000000 0.00000000
  vt 0.00000000 0.00000000
  vt 0.00000000 0.00000000
  vt 0.00000000 0.00000000
  vt 0.00000000 0.00000000
  vt 0.00000000 0.00000000
  vt 0.00000000 0.00000000
  vt 0.00000000 0.00000000
  vt 0.00000000 0.00000000
  vt 0.00000000 0.00000000
  vt 0.00000000 0.00000000
  vt 0.00000000 0.00000000
  vt 0.00000000 0.00000000
  vt 0.00000000 0.00000000
  vt 0.00000000 0.00000000
  vt 0.00000000 0.00000000
  vt 0.00000000 0.00000000
  vt 0.00000000 0.00000000
  vt 0.00000000 0.00000000
  vt 0.00000000 0.00000000
  vt 0.00000000 0.00000000
  vt 0.00000000 0.00000000
  vt 0.00000000 0.00000000
  vt 0.00000000 0.00000000
  vt 0.00000000 0.00000000
  vt 0.00000000 0.00000000
  vt 0.00000000 0.00000000
  vt 0.00000000 0.00000000
  vt 0.00000000 0.00000000
  vt 0.00000000 0.00000000
  vt 0.00000000 0.00000000
  vt 0.00000000 0.00000000
  vt 0.00000000 0.00000000
  vt 0.00000000 0.00000000
  vt 0.00000000 0.00000000
  vt 0.00000000 0.00000000
  vt 0.00000000 0.00000000
  vt 0.00000000 0.00000000
  vt 0.00000000 0.00000000
  vt 0.00000000 0.00000000
  vt 0.00000000 0.00000000
  vt 0.00000000 0.00000000
  vt 0.00000000 0.00000000
  vt 0.00000000 0.00000000
  vt 0.00000000 0.00000000
  vt 0.00000000 0.00000000
  vt 0.00000000 0.00000000
  vt 0.00000000 0.00000000
  vt 0.00000000 0.00000000
  vt 0.00000000 0.00000000
  vt 0.00000000 0.00000000
  vt 0.00000000 0.00000000
  vt 0.00000000 0.00000000
  vt 0.00000000 0.00000000
  vt 0.00000000 0.00000000
  vt 0.00000000 0.00000000
  vt 0.00000000 0.00000000
  vt 0.00000000 0.00000000
  vt 0.00000000 0.00000000
  vt 0.00000000 0.00000000
  vt 0.00000000 0.00000000
  vt 0.00000000 0.00000000
  vt 0.00000000 0.00000000
  vt 0.00000000 0.00000000
  vt 0.00000000 0.00000000
  vt 0.00000000 0.00000000
  vt 0.00000000 0.00000000
  vt 0.00000000 0.00000000
  vt 0.00000000 0.00000000
  vt 0.00000000 0.00000000
  vt 0.00000000 0.00000000
  vt 0.00000000 0.00000000
  vt 0.00000000 0.00000000
  vt 0.00000000 0.00000000
  vt 0.00000000 0.00000000
  vt 0.00000000 0.00000000
  vt 0.00000000 0.00000000
  vt 0.00000000 0.00000000
  vt 0.00000000 0.00000000
  vt 0.00000000 0.00000000
  vt 0.00000000 0.00000000
  vt 0.00000000 0.00000000
  vt 0.00000000 0.00000000
  vt 0.00000000 0.00000000
  vt 0.00000000 0.00000000
  vt 0.00000000 0.00000000
  vt 0.00000000 0.00000000
  vt 0.00000000 0.00000000
  vt 0.00000000 0.00000000
  vt 0.00000000 0.00000000
  vt 0.00000000 0.00000000
  vt 0.00000000 0.00000000
  vt 0.00000000 0.00000000
  vt 0.00000000 0.00000000
  vt 0.00000000 0.00000000
  vt 0.00000000 0.00000000
  vt 0.00000000 0.00000000
  vt 0.00000000 0.00000000
  vt 0.00000000 0.00000000
  vt 0.00000000 0.00000000
  vt 0.00000000 0.00000000
  vt 0.00000000 0.00000000
  vt 0.00000000 0.00000000
  vt 0.00000000 0.00000000
  vt 0.00000000 0.00000000
  vt 0.00000000 0.00000000
  vt 0.00000000 0.00000000
  vt 0.00000000 0.00000000
  vt 0.00000000 0.00000000
  vt 0.00000000 0.00000000
  vt 0.00000000 0.00000000
  vt 0.00000000 0.00000000
  vt 0.00000000 0.00000000
  vt 0.00000000 0.00000000
  vt 0.00000000 0.00000000
  vt 0.00000000 0.00000000
  vt 0.00000000 0.00000000
  vt 0.00000000 0.00000000
  vt 0.00000000 0.00000000
  vt 0.00000000 0.00000000
  vt 0.00000000 0.00000000
  vt 0.00000000 0.00000000
  vt 0.00000000 0.00000000
  vt 0.00000000 0.00000000
  vt 0.00000000 0.00000000
  vt 0.00000000 0.00000000
  vt 0.00000000 0.00000000
  vt 0.00000000 0.00000000
  vt 0.00000000 0.00000000
  vt 0.00000000 0.00000000
  vt 0.00000000 0.00000000
  vt 0.00000000 0.00000000
  vt 0.00000000 0.00000000
  vt 0.00000000 0.00000000
  vt 0.00000000 0.00000000
  vt 0.00000000 0.00000000
  vt 0.00000000 0.00000000
  vt 0.00000000 0.00000000
  vt 0.00000000 0.00000000
  vt 0.00000000 0.00000000
  vt 0.00000000 0.00000000
  vt 0.00000000 0.00000000
  vt 0.00000000 0.00000000
  vt 0.00000000 0.00000000
  vt 0.00000000 0.00000000
  vt 0.00000000 0.00000000
#  146 elements
  vn -0.94598207 0.32421895 0.00000000
  vn 0.99875026 0.04997920 -0.00000000
  vn -0.92811442 -0.37229507 0.00000000
  vn -0.98175073 0.19017229 0.00000000
  vn 0.98175073 0.19017229 -0.00000000
  vn 0.85350565 0.52108359 -0.00000000
  vn -0.86516977 -0.50147908 0.00000000
  vn -0.97189301 -0.23542296 0.00000000
  vn -0.99560149 -0.09368925 0.00000000
  vn -0.18151565 -0.98338806 0.00000000
  vn 0.00000000 0.00000000 -1.00000000
  vn -0.57614812 -0.81734530 0.00000000
  vn 0.10044109 0.99494301 -0.00000000
  vn -0.32059197 -0.94721739 0.00000000
  vn -0.85350565 0.52108359 0.00000000
  vn -0.29727011 0.95479342 -0.00000000
  vn 0.27530959 0.96135562 -0.00000000
  vn 0.96252109 0.27120683 -0.00000000
  vn 0.92811442 -0.37229507 -0.00000000
  vn -0.27530959 0.96135562 -0.00000000
  vn 0.57614812 -0.81734530 -0.00000000
  vn -0.99875026 0.04997920 0.00000000
  vn -0.92652580 0.37623124 0.00000000
  vn 0.18151565 -0.98338806 0.00000000
  vn 0.97609187 0.21735836 -0.00000000
  vn 0.99560149 -0.09368925 -0.00000000
  vn 0.00000000 1.00000000 -0.00000000
  vn 0.44829128 0.89388754 -0.00000000
  vn 0.90421229 0.42708330 -0.00000000
  vn 0.03869094 -0.99925123 0.00000000
  vn -0.68735059 -0.72632580 0.00000000
  vn -0.78673186 0.61729489 -0.00000000
  vn 0.99079357 0.13538131 -0.00000000
  vn -0.98665256 0.16283959 0.00000000
  vn -0.91572210 0.40181219 0.00000000
  vn 0.60581831 0.79560303 -0.00000000
  vn -0.60581831 0.79560303 0.00000000
  vn -0.74245999 0.66989041 0.00000000
  vn -0.03869094 -0.99925123 0.00000000
  vn 0.97189301 -0.23542296 -0.00000000
  vn 0.91572210 0.40181219 -0.00000000
  vn 0.45304788 -0.89148618 0.00000000
  vn 0.98665256 0.16283959 -0.00000000
  vn -0.96968035 0.24437682 0.00000000
  vn 0.92652580 0.37623124 -0.00000000
  vn 0.96968035 0.24437682 -0.00000000
  vn -0.90421229 0.42708330 0.00000000
  vn 0.89423456 0.44759864 -0.00000000
  vn -0.97609187 0.21735836 0.00000000
  vn -0.09283670 0.99568135 -0.00000000
  vn 0.78673186 0.61729489 -0.00000000
  vn -0.99079357 0.13538131 0.00000000
  vn 0.93661505 0.35036018 -0.00000000
  vn 0.64748165 0.76208104 -0.00000000
  vn 0.95461964 0.29782772 -0.00000000
  vn 0.29727011 0.95479342 -0.00000000
  vn -0.44829128 0.89388754 -0.00000000
  vn 0.09283670 0.99568135 -0.00000000
  vn -0.00000000 0.00000000 1.00000000
  vn -0.10044109 0.99494301 -0.00000000
  vn -0.96252109 0.27120683 0.00000000
  vn -0.89423456 0.44759864 0.00000000
  vn 0.32059197 -0.94721739 0.00000000
  vn 0.86516977 -0.50147908 -0.00000000
  vn -0.00000000 -1.00000000 0.00000000
  vn 0.74245999 0.66989041 -0.00000000
  vn -0.78435890 -0.62030728 0.00000000
  vn -0.64748165 0.76208104 -0.00000000
  vn 0.48210319 0.87611444 -0.00000000
  vn -0.95461964 0.29782772 0.00000000
  vn -0.48210319 0.87611444 -0.00000000
  vn 0.94598207 0.32421895 -0.00000000
  vn -0.93661505 0.35036018 0.00000000
  vn -0.45304788 -0.89148618 0.00000000
  vn 0.68735059 -0.72632580 -0.00000000
  vn 0.78435890 -0.62030728 -0.00000000
#  76 elements
#  242 faces
usemtl Default_Material
f 1/1/1 2/2/1 3/3/1
f 2/2/1 1/1/1 4/4/1
f 5/5/2 6/6/2 7/7/2
f 6/6/2 5/5/2 8/8/2
f 9/9/3 10/10/3 11/11/3
f 10/10/3 9/9/3 12/12/3
f 13/13/4 14/14/4 15/15/4
f 14/14/4 13/13/4 16/16/4
f 17/17/5 18/18/5 19/19/5
f 18/18/5 17/17/5 20/20/5
f 21/21/6 22/22/6 23/23/6
f 22/22/6 21/21/6 24/24/6
f 11/11/7 25/25/7 26/26/7
f 25/25/7 11/11/7 10/10/7
f 27/27/8 12/12/8 9/9/8
f 12/12/8 27/27/8 28/28/8
f 29/29/9 28/28/9 27/27/9
f 28/28/9 29/29/9 30/30/9
f 31/31/10 32/32/10 33/33/10
f 32/32/10 31/31/10 34/34/10
f 35/35/11 28/28/11 30/30/11
f 28/28/11 35/35/11 36/36/11
f 28/28/11 36/36/11 12/12/11
f 12/12/11 36/36/11 10/10/11
f 10/10/11 36/36/11 14/14/11
f 10/10/11 14/14/11 16/16/11
f 10/10/11 16/16/11 25/25/11
f 25/25/11 16/16/11 37/37/11
f 25/25/11 37/37/11 38/38/11
f 38/38/11 37/37/11 39/39/11
f 38/38/11 39/39/11 40/40/11
f 40/40/11 39/39/11 41/41/11
f 40/40/11 41/41/11 42/42/11
f 42/42/11 41/41/11 43/43/11
f 42/42/11 43/43/11 44/44/11
f 44/44/11 43/43/11 45/45/11
f 44/44/11 45/45/11 32/32/11
f 32/32/11 45/45/11 46/46/11
f 32/32/11 46/46/11 33/33/11
f 33/33/11 46/46/11 47/47/11
f 33/33/11 47/47/11 48/48/11
f 48/48/11 47/47/11 49/49/11
f 49/49/11 47/47/11 50/50/11
f 49/49/11 50/50/11 51/51/11
f 49/49/11 51/51/11 52/52/11
f 49/49/11 52/52/11 53/53/11
f 49/49/11 53/53/11 54/54/11
f 49/49/11 54/54/11 55/55/11
f 55/55/11 54/54/11 56/56/11
f 56/56/11 54/54/11 57/57/11
f 56/56/11 57/57/11 58/58/11
f 58/58/11 57/57/11 59/59/11
f 58/58/11 59/59/11 60/60/11
f 60/60/11 59/59/11 61/61/11
f 60/60/11 61/61/11 62/62/11
f 62/62/11 61/61/11 63/63/11
f 62/62/11 63/63/11 64/64/11
f 64/64/11 63/63/11 65/65/11
f 64/64/11 65/65/11 66/66/11
f 66/66/11 65/65/11 17/17/11
f 66/66/11 17/17/11 67/67/11
f 67/67/11 17/17/11 19/19/11
f 67/67/11 19/19/11 68/68/11
f 68/68/11 19/19/11 69/69/11
f 68/68/11 69/69/11 5/5/11
f 68/68/11 5/5/11 70/70/11
f 70/70/11 5/5/11 7/7/11
f 71/71/12 40/40/12 42/42/12
f 40/40/12 71/71/12 72/72/12
f 73/73/13 51/51/13 50/50/13
f 51/51/13 73/73/13 74/74/13
f 34/34/14 44/44/14 32/32/14
f 44/44/14 34/34/14 75/75/14
f 76/76/15 77/77/15 78/78/15
f 77/77/15 76/76/15 79/79/15
f 80/80/16 53/53/16 52/52/16
f 53/53/16 80/80/16 81/81/16
f 82/82/17 83/83/17 84/84/17
f 83/83/17 82/82/17 85/85/17
f 61/61/18 86/86/18 63/63/18
f 86/86/18 61/61/18 87/87/18
f 68/68/19 88/88/19 67/67/19
f 88/88/19 68/68/19 89/89/19
f 90/90/20 91/91/20 92/92/20
f 91/91/20 90/90/20 93/93/20
f 94/94/21 60/60/21 62/62/21
f 60/60/21 94/94/21 95/95/21
f 96/96/22 30/30/22 29/29/22
f 30/30/22 96/96/22 35/35/22
f 97/97/23 98/98/23 99/99/23
f 98/98/23 97/97/23 100/100/23
f 101/101/24 55/55/24 56/56/24
f 55/55/24 101/101/24 102/102/24
f 65/65/25 20/20/25 17/17/25
f 20/20/25 65/65/25 103/103/25
f 7/7/26 104/104/26 70/70/26
f 104/104/26 7/7/26 6/6/26
f 105/105/27 106/106/27 107/107/27
f 106/106/27 105/105/27 108/108/27
f 83/83/28 109/109/28 110/110/28
f 109/109/28 83/83/28 85/85/28
f 23/23/29 111/111/29 112/112/29
f 111/111/29 23/23/29 22/22/29
f 55/55/30 113/113/30 49/49/30
f 113/113/30 55/55/30 102/102/30
f 72/72/31 38/38/31 40/40/31
f 38/38/31 72/72/31 114/114/31
f 115/115/32 57/57/32 116/116/32
f 57/57/32 115/115/32 59/59/32
f 69/69/33 8/8/33 5/5/33
f 8/8/33 69/69/33 117/117/33
f 15/15/34 36/36/34 118/118/34
f 36/36/34 15/15/34 14/14/34
f 119/119/35 100/100/35 97/97/35
f 100/100/35 119/119/35 120/120/35
f 110/110/36 121/121/36 122/122/36
f 121/121/36 110/110/36 109/109/36
f 123/123/37 124/124/37 125/125/37
f 124/124/37 123/123/37 126/126/37
f 123/123/38 79/79/38 76/76/38
f 79/79/38 123/123/38 125/125/38
f 127/127/39 33/33/39 48/48/39
f 33/33/39 127/127/39 31/31/39
f 70/70/40 89/89/40 68/68/40
f 89/89/40 70/70/40 104/104/40
f 112/112/41 128/128/41 129/129/41
f 128/128/41 112/112/41 111/111/41
f 60/60/42 130/130/42 58/58/42
f 130/130/42 60/60/42 95/95/42
f 19/19/43 117/117/43 69/69/43
f 117/117/43 19/19/43 18/18/43
f 131/131/44 37/37/44 132/132/44
f 37/37/44 131/131/44 39/39/44
f 129/129/45 133/133/45 134/134/45
f 133/133/45 129/129/45 128/128/45
f 63/63/46 103/103/46 65/65/46
f 103/103/46 63/63/46 86/86/46
f 78/78/47 120/120/47 119/119/47
f 120/120/47 78/78/47 77/77/47
f 41/41/48 135/135/48 43/43/48
f 135/135/48 41/41/48 136/136/48
f 132/132/49 16/16/49 13/13/49
f 16/16/49 132/132/49 37/37/49
f 93/93/50 107/107/50 91/91/50
f 107/107/50 93/93/50 105/105/50
f 43/43/51 137/137/51 45/45/51
f 137/137/51 43/43/51 135/135/51
f 118/118/52 35/35/52 96/96/52
f 35/35/52 118/118/52 36/36/52
f 134/134/53 138/138/53 139/139/53
f 138/138/53 134/134/53 133/133/53
f 137/137/54 46/46/54 45/45/54
f 46/46/54 137/137/54 140/140/54
f 141/141/55 87/87/55 61/61/55
f 87/87/55 141/141/55 142/142/55
f 143/143/56 50/50/56 47/47/56
f 50/50/56 143/143/56 73/73/56
f 126/126/57 92/92/57 124/124/57
f 92/92/57 126/126/57 90/90/57
f 106/106/58 82/82/58 84/84/58
f 82/82/58 106/106/58 108/108/58
f 27/27/59 96/96/59 29/29/59
f 96/96/59 27/27/59 118/118/59
f 118/118/59 27/27/59 9/9/59
f 118/118/59 9/9/59 11/11/59
f 118/118/59 11/11/59 15/15/59
f 15/15/59 11/11/59 13/13/59
f 13/13/59 11/11/59 26/26/59
f 13/13/59 26/26/59 132/132/59
f 132/132/59 26/26/59 114/114/59
f 132/132/59 114/114/59 131/131/59
f 131/131/59 114/114/59 72/72/59
f 131/131/59 72/72/59 136/136/59
f 136/136/59 72/72/59 71/71/59
f 136/136/59 71/71/59 135/135/59
f 135/135/59 71/71/59 75/75/59
f 135/135/59 75/75/59 137/137/59
f 137/137/59 75/75/59 34/34/59
f 137/137/59 34/34/59 140/140/59
f 140/140/59 34/34/59 31/31/59
f 140/140/59 31/31/59 143/143/59
f 143/143/59 31/31/59 127/127/59
f 143/143/59 127/127/59 113/113/59
f 143/143/59 113/113/59 73/73/59
f 73/73/59 113/113/59 74/74/59
f 74/74/59 113/113/59 80/80/59
f 80/80/59 113/113/59 81/81/59
f 81/81/59 113/113/59 144/144/59
f 144/144/59 113/113/59 102/102/59
f 144/144/59 102/102/59 101/101/59
f 144/144/59 101/101/59 116/116/59
f 116/116/59 101/101/59 130/130/59
f 116/116/59 130/130/59 115/115/59
f 115/115/59 130/130/59 95/95/59
f 115/115/59 95/95/59 87/87/59
f 87/87/59 95/95/59 94/94/59
f 87/87/59 94/94/59 86/86/59
f 86/86/59 94/94/59 145/145/59
f 86/86/59 145/145/59 103/103/59
f 103/103/59 145/145/59 146/146/59
f 103/103/59 146/146/59 20/20/59
f 20/20/59 146/146/59 88/88/59
f 20/20/59 88/88/59 18/18/59
f 18/18/59 88/88/59 89/89/59
f 18/18/59 89/89/59 117/117/59
f 117/117/59 89/89/59 8/8/59
f 8/8/59 89/89/59 104/104/59
f 8/8/59 104/104/59 6/6/59
f 51/51/60 80/80/60 52/52/60
f 80/80/60 51/51/60 74/74/60
f 136/136/61 39/39/61 131/131/61
f 39/39/61 136/136/61 41/41/61
f 87/87/62 59/59/62 115/115/62
f 59/59/62 87/87/62 61/61/62
f 130/130/63 56/56/63 58/58/63
f 56/56/63 130/130/63 101/101/63
f 67/67/64 146/146/64 66/66/64
f 146/146/64 67/67/64 88/88/64
f 49/49/65 127/127/65 48/48/65
f 127/127/65 49/49/65 113/113/65
f 122/122/66 24/24/66 21/21/66
f 24/24/66 122/122/66 121/121/66
f 26/26/67 38/38/67 114/114/67
f 38/38/67 26/26/67 25/25/67
f 144/144/68 57/57/68 54/54/68
f 57/57/68 144/144/68 116/116/68
f 140/140/69 47/47/69 46/46/69
f 47/47/69 140/140/69 143/143/69
f 3/3/70 41/41/70 136/136/70
f 41/41/70 3/3/70 2/2/70
f 81/81/71 54/54/71 53/53/71
f 54/54/71 81/81/71 144/144/71
f 139/139/72 142/142/72 141/141/72
f 142/142/72 139/139/72 138/138/72
f 99/99/73 4/4/73 1/1/73
f 4/4/73 99/99/73 98/98/73
f 75/75/74 42/42/74 44/44/74
f 42/42/74 75/75/74 71/71/74
f 64/64/75 94/94/75 62/62/75
f 94/94/75 64/64/75 145/145/75
f 66/66/76 145/145/76 64/64/76
f 145/145/76 66/66/76 146/146/76